<svg id="Layer_1" data-name="Layer 1" xmlns="http://www.w3.org/2000/svg" viewBox="0 0 800 800"><defs><style>.cls-1{fill:#fff;fill-rule:evenodd;}</style></defs><path class="cls-1" d="M400.23,126.52c-154.35,0-279.13,125.7-279.13,281.21,0,124.3,80,229.52,190.86,266.76,13.87,2.8,19-6,19-13.49,0-6.52-.46-28.87-.46-52.15-77.65,16.76-93.81-33.52-93.81-33.52-12.48-32.59-31-41-31-41-25.42-17.23,1.85-17.23,1.85-17.23,28.19,1.87,43,28.87,43,28.87,24.95,42.83,65.16,30.73,81.33,23.28,2.31-18.16,9.71-30.73,17.57-37.71-61.93-6.52-127.09-30.73-127.09-138.74,0-30.73,11.09-55.87,28.65-75.42-2.77-7-12.48-35.86,2.78-74.5,0,0,23.56-7.45,76.71,28.87a266.16,266.16,0,0,1,139.56,0c53.15-36.32,76.72-28.87,76.72-28.87,15.25,38.64,5.54,67.51,2.77,74.5,18,19.55,28.65,44.69,28.65,75.42,0,108-65.16,131.75-127.55,138.74,10.17,8.84,18.95,25.6,18.95,52.14,0,37.71-.46,68-.46,77.28,0,7.45,5.09,16.3,19,13.51C599,637.24,678.9,532,678.9,407.73,679.35,252.22,554.12,126.52,400.23,126.52Z"/></svg>