<svg id="Layer_1" data-name="Layer 1" xmlns="http://www.w3.org/2000/svg" viewBox="0 0 800 800"><defs><style>.cls-1{fill:#fff;}</style></defs><path class="cls-1" d="M506.32,675H293.67c-92.6,0-167.93-75.33-167.93-167.93V294.44c0-92.6,75.33-167.94,167.93-167.94H506.32c92.61,0,167.94,75.34,167.94,167.94V507.09C674.26,599.69,598.93,675,506.32,675ZM293.67,167.58A127,127,0,0,0,166.81,294.44V507.09A127,127,0,0,0,293.67,634H506.32A127,127,0,0,0,633.19,507.09V294.44A127,127,0,0,0,506.32,167.58Z"/><path class="cls-1" d="M400,539.52c-76.51,0-138.75-62.25-138.75-138.76S323.49,262,400,262s138.75,62.25,138.75,138.75S476.51,539.52,400,539.52Zm0-235.45a96.7,96.7,0,1,0,96.69,96.69A96.81,96.81,0,0,0,400,304.07Z"/><path class="cls-1" d="M590,246.92a36.13,36.13,0,1,1-36.12-36.13A36.12,36.12,0,0,1,590,246.92Z"/></svg>