<svg id="Layer_1" data-name="Layer 1" xmlns="http://www.w3.org/2000/svg" viewBox="0 0 800 800"><defs><style>.cls-1{fill:#fff;}</style></defs><path class="cls-1" d="M400,126.5h0c-151.47,0-274.26,122.79-274.26,274.26h0C125.74,552.23,248.53,675,400,675h0c151.47,0,274.26-122.79,274.26-274.26h0C674.26,249.29,551.47,126.5,400,126.5ZM332.3,525.7a1.91,1.91,0,0,1-1.91,1.91H275.33a1.91,1.91,0,0,1-1.91-1.91V352.89a1.91,1.91,0,0,1,1.91-1.9h55.06a1.91,1.91,0,0,1,1.91,1.9ZM302.86,327.44a35.33,35.33,0,1,1,35.32-35.32A35.33,35.33,0,0,1,302.86,327.44ZM532.47,515.83a11.81,11.81,0,0,1-11.78,11.78H485.37a11.81,11.81,0,0,1-11.78-11.78V433.41a29.44,29.44,0,1,0-58.87,0v82.42a11.81,11.81,0,0,1-11.78,11.78H367.62a11.81,11.81,0,0,1-11.78-11.78V362.76A11.81,11.81,0,0,1,367.62,351h35.32a11.81,11.81,0,0,1,11.78,11.77v7.54c11.77-15.25,31.26-25.2,53-25.2,32.5,0,64.77,23.55,64.77,70.65Z"/></svg>